<svg id="untitled" xmlns="http://www.w3.org/2000/svg" xmlns:xlink="http://www.w3.org/1999/xlink" viewBox="0 0 640 480" shape-rendering="geometricPrecision" text-rendering="geometricPrecision" width="640" height="480" style="background-color:transparent"><ellipse id="untitled-ellipse1" rx="15.746606" ry="15.746606" transform="matrix(1 0 0 1 32.217195 58.099548)" fill="rgb(205,174,145)" stroke="none" stroke-width="0"/><ellipse id="untitled-ellipse2" rx="16.289593" ry="17.918553" transform="matrix(1 0 0 1 114.208145 109.140272)" fill="rgb(253,198,179)" stroke="none" stroke-width="0"/><ellipse id="untitled-ellipse3" rx="12.488688" ry="14.38914" transform="matrix(1 0 0 1 555.656109 94.751132)" fill="rgb(248,181,157)" stroke="none" stroke-width="0"/><ellipse id="untitled-ellipse4" rx="13.031674" ry="11.674208" transform="matrix(1 0 0 1 318.371041 97.466063)" fill="rgb(241,63,215)" stroke="none" stroke-width="0"/><ellipse id="untitled-ellipse5" rx="11.945701" ry="11.402715" transform="matrix(1 0 0 1 102.262444 272.036199)" fill="rgb(204,181,165)" stroke="none" stroke-width="0"/><ellipse id="untitled-ellipse6" rx="13.031674" ry="11.402715" transform="matrix(1 0 0 1 101.176471 188.41629)" fill="rgb(221,100,212)" stroke="none" stroke-width="0"/><ellipse id="untitled-ellipse7" rx="11.945701" ry="14.117647" transform="matrix(1 0 0 1 479.095023 191.131222)" fill="rgb(243,192,167)" stroke="none" stroke-width="0"/><ellipse id="untitled-ellipse8" rx="10.859728" ry="13.846154" transform="matrix(1 0 0 1 420.452489 71.945702)" fill="rgb(253,141,232)" stroke="none" stroke-width="0"/><ellipse id="untitled-ellipse9" rx="11.945702" ry="10.316743" transform="matrix(1 0 0 1 252.126698 166.696833)" fill="rgb(159,209,145)" stroke="none" stroke-width="0"/><ellipse id="untitled-ellipse10" rx="16.289593" ry="14.117647" transform="matrix(1 0 0 1 347.692308 191.131222)" fill="rgb(227,232,188)" stroke="none" stroke-width="0"/><ellipse id="untitled-ellipse11" rx="15.20362" ry="14.117647" transform="matrix(1 0 0 1 583.348417 191.131223)" fill="rgb(179,173,115)" stroke="none" stroke-width="0"/><ellipse id="untitled-ellipse12" rx="11.945701" ry="15.746606" transform="matrix(1 0 0 1 182.624435 58.099548)" fill="rgb(229,189,243)" stroke="none" stroke-width="0"/><ellipse id="untitled-ellipse13" rx="16.289593" ry="11.538462" transform="matrix(1 0 0 1 544.253394 60.40724)" fill="rgb(230,144,198)" stroke="none" stroke-width="0"/><ellipse id="untitled-ellipse14" rx="8.144796" ry="9.773755" transform="matrix(1 0 0 1 459.004526 136.83258)" fill="rgb(241,172,131)" stroke="none" stroke-width="0"/><ellipse id="untitled-ellipse15" rx="16.289593" ry="11.402715" transform="matrix(1 0 0 1 289.049774 272.036199)" fill="rgb(225,193,174)" stroke="none" stroke-width="0"/><ellipse id="untitled-ellipse16" rx="11.945702" ry="7.60181" transform="matrix(1 0 0 1 403.076924 163.9819)" fill="rgb(142,232,145)" stroke="none" stroke-width="0"/><polygon id="untitled-polygon1" points="0,-29.541655 8.682075,-11.94985 28.095784,-9.128873 14.047892,4.564437 17.364149,23.899701 0,14.770828 -17.364149,23.899701 -14.047892,4.564437 -28.095784,-9.128873 -8.682075,-11.94985 0,-29.541655" transform="matrix(-0.588172 0.808736 -0.808736 -0.588172 170.678734 222.624434)" fill="rgb(223,228,154)" stroke="none" stroke-width="0"/><polygon id="untitled-polygon2" points="0,-6.332256 1.861003,-2.561451 6.022334,-1.956775 3.011167,0.978387 3.722007,5.122903 0,3.166128 -3.722007,5.122903 -3.011167,0.978387 -6.022334,-1.956775 -1.861003,-2.561451 0,-6.332256" transform="matrix(-0.514496 0.857493 -0.857493 -0.514496 246.696833 114.027149)" fill="rgb(214,82,141)" stroke="none" stroke-width="0"/><polygon id="untitled-polygon3" points="0,-8.687781 2.553275,-3.514281 8.262571,-2.684672 4.131285,1.342336 5.10655,7.028562 0,4.34389 -5.10655,7.028562 -4.131285,1.342336 -8.262571,-2.684672 -2.553275,-3.514281 0,-8.687781" transform="matrix(0 1 -1 0 264.0724 85.791856)" fill="rgb(168,228,158)" stroke="none" stroke-width="0"/><polygon id="untitled-polygon4" points="0,-4.343892 1.276638,-1.757141 4.131287,-1.342336 2.065643,0.671168 2.553276,3.514282 0,2.171946 -2.553276,3.514282 -2.065643,0.671168 -4.131287,-1.342336 -1.276638,-1.757141 0,-4.343892" transform="matrix(0 1 -1 0 272.760181 85.791856)" fill="rgb(173,241,226)" stroke="none" stroke-width="0"/><polygon id="untitled-polygon5" points="0,-13.031674 3.829913,-5.271423 12.393858,-4.027009 6.196929,2.013504 7.659826,10.542846 0,6.515837 -7.659826,10.542846 -6.196929,2.013504 -12.393858,-4.027009 -3.829913,-5.271423 0,-13.031674" transform="matrix(0 1 -1 0 318.371041 71.945702)" fill="rgb(139,142,103)" stroke="none" stroke-width="0"/><polygon id="untitled-polygon6" points="0,-23.168172 6.808955,-9.371722 22.034241,-7.159359 11.01712,3.579679 13.61791,18.743445 0,11.584086 -13.61791,18.743445 -11.01712,3.579679 -22.034241,-7.159359 -6.808955,-9.371722 0,-23.168172" transform="matrix(-0.498031 0.867159 -0.867159 -0.498031 459.004526 60.40724)" fill="rgb(244,244,166)" stroke="none" stroke-width="0"/><polygon id="untitled-polygon7" points="0,-14.770829 4.341038,-5.974926 14.047893,-4.564437 7.023946,2.282219 8.682075,11.949852 0,7.385414 -8.682075,11.949852 -7.023946,2.282219 -14.047893,-4.564437 -4.341038,-5.974926 0,-14.770829" transform="matrix(-0.955779 0.294086 -0.294086 -0.955779 527.963801 177.013575)" fill="rgb(221,232,79)" stroke="none" stroke-width="0"/><polygon id="untitled-polygon8" points="0,-14.117647 4.149072,-5.710708 13.42668,-4.362593 6.71334,2.181296 8.298145,11.421416 0,7.058823 -8.298145,11.421416 -6.71334,2.181296 -13.42668,-4.362593 -4.149072,-5.710708 0,-14.117647" transform="matrix(-1 0 0 -1 545.734374 283.438914)" fill="rgb(220,124,77)" stroke="none" stroke-width="0"/><polygon id="untitled-polygon9" points="0,-10.859728 3.191594,-4.392852 10.328215,-3.355841 5.164108,1.67792 6.383188,8.785705 0,5.429864 -6.383188,8.785705 -5.164108,1.67792 -10.328215,-3.355841 -3.191594,-4.392852 0,-10.859728" transform="matrix(0 -1 1 0 431.312217 276.380091)" fill="rgb(243,191,156)" stroke="none" stroke-width="0"/><polygon id="untitled-polygon10" points="0,-16.144147 4.744646,-6.530445 15.353997,-4.988816 7.676998,2.494408 9.489292,13.06089 0,8.072074 -9.489292,13.06089 -7.676998,2.494408 -15.353997,-4.988816 -4.744646,-6.530445 0,-16.144147" transform="matrix(-0.336336 -0.941742 0.941742 -0.336336 371.583711 310.588235)" fill="rgb(119,89,225)" stroke="none" stroke-width="0"/><polygon id="untitled-polygon11" points="0,-19.15976 5.630912,-7.750286 18.222015,-5.920692 9.111007,2.960346 11.261824,15.500572 0,9.57988 -11.261824,15.500572 -9.111007,2.960346 -18.222015,-5.920692 -5.630912,-7.750286 0,-19.15976" transform="matrix(0.99407 0.108739 -0.108739 0.99407 389.047807 266.051876)" fill="rgb(207,253,128)" stroke="none" stroke-width="0"/><polygon id="untitled-polygon12" points="0,-37.86132 11.127163,-15.315226 36.008255,-11.699791 18.004128,5.849896 22.254326,30.630451 0,18.93066 -22.254326,30.630451 -18.004128,5.849896 -36.008255,-11.699791 -11.127163,-15.315226 0,-37.86132" transform="matrix(-0.258146 -0.966106 0.966106 -0.258146 226.063349 337.173943)" fill="rgb(223,189,165)" stroke="none" stroke-width="0"/><polygon id="untitled-polygon13" points="0,-29.31289 8.614842,-11.857313 27.878215,-9.058181 13.939107,4.529091 17.229684,23.714626 0,14.656445 -17.229684,23.714626 -13.939107,4.529091 -27.878215,-9.058181 -8.614842,-11.857313 0,-29.31289" transform="matrix(-0.77675 -0.62981 0.62981 -0.77675 120.723982 381.213125)" fill="rgb(128,143,172)" stroke="none" stroke-width="0"/><polygon id="untitled-polygon14" points="0,-23.960529 7.041823,-9.692238 22.787818,-7.404211 11.393909,3.702105 14.083646,19.384476 0,11.980265 -14.083646,19.384476 -11.393909,3.702105 -22.787818,-7.404211 -7.041823,-9.692238 0,-23.960529" transform="matrix(-0.075906 -0.997115 0.997115 -0.075906 66.42534 264.233131)" fill="rgb(227,172,215)" stroke="none" stroke-width="0"/><polygon id="untitled-polygon15" points="0,-10.978941 3.22663,-4.441075 10.441593,-3.392679 5.220796,1.69634 6.453259,8.88215 0,5.48947 -6.453259,8.88215 -5.220796,1.69634 -10.441593,-3.392679 -3.22663,-4.441075 0,-10.978941" transform="matrix(-0.839067 0.544028 -0.544028 -0.839067 26.244344 156.38009)" fill="rgb(221,124,138)" stroke="none" stroke-width="0"/><polygon id="untitled-polygon16" points="0,-23.645065 6.94911,-9.56463 22.487793,-7.306727 11.243896,3.653363 13.89822,19.129259 0,11.822532 -13.89822,19.129259 -11.243896,3.653363 -22.487793,-7.306727 -6.94911,-9.56463 0,-23.645065" transform="matrix(-0.077189 0.997017 -0.997017 -0.077189 307.828195 403.9819)" fill="rgb(205,65,244)" stroke="none" stroke-width="0"/><polygon id="untitled-polygon17" points="0,-33.322187 9.793145,-13.479108 31.691283,-10.297122 15.845641,5.148561 19.58629,26.958215 0,16.661093 -19.58629,26.958215 -15.845641,5.148561 -31.691283,-10.297122 -9.793145,-13.479108 0,-33.322187" transform="matrix(-0.099084 0.995079 -0.995079 -0.099084 409.592761 402.505339)" fill="rgb(236,196,179)" stroke="none" stroke-width="0"/><polygon id="untitled-polygon18" points="0,-33.608494 9.877289,-13.594922 31.963578,-10.385596 15.981789,5.192798 19.754577,27.189843 0,16.804247 -19.754577,27.189843 -15.981789,5.192798 -31.963578,-10.385596 -9.877289,-13.594922 0,-33.608494" transform="matrix(-0.314059 0.949403 -0.949403 -0.314059 496.470589 405.807029)" fill="rgb(234,191,165)" stroke="none" stroke-width="0"/><polygon id="untitled-polygon19" points="0,-7.60181 2.234116,-3.074997 7.229751,-2.349088 3.614875,1.174544 4.468232,6.149993 0,3.800905 -4.468232,6.149993 -3.614875,1.174544 -7.229751,-2.349088 -2.234116,-3.074997 0,-7.60181" transform="matrix(0 1 -1 0 560.542987 371.28529)" fill="rgb(221,139,115)" stroke="none" stroke-width="0"/><polygon id="untitled-polygon20" points="0,-3.257919 0.957478,-1.317856 3.098465,-1.006752 1.549233,0.503376 1.914957,2.635712 0,1.62896 -1.914957,2.635712 -1.549233,0.503376 -3.098465,-1.006752 -0.957478,-1.317856 0,-3.257919" transform="matrix(0 1 -1 0 608.325792 346.425339)" fill="rgb(210,219,237)" stroke="none" stroke-width="0"/><polygon id="untitled-polygon21" points="0,-2.946816 0.866047,-1.192012 2.802588,-0.910616 1.401294,0.455308 1.732095,2.384024 0,1.473408 -1.732095,2.384024 -1.401294,0.455308 -2.802588,-0.910616 -0.866047,-1.192012 0,-2.946816" transform="matrix(0 1 -1 0 605.69008 288.773951)" fill="rgb(243,204,167)" stroke="none" stroke-width="0"/></svg>