<svg id="edu_7" xmlns="http://www.w3.org/2000/svg" xmlns:xlink="http://www.w3.org/1999/xlink" viewBox="0 0 1280 480" shape-rendering="geometricPrecision" text-rendering="geometricPrecision" width="1280" height="480" style="background-color:transparent"><rect id="edu_7-rect1" width="321.295546" height="632.226721" rx="0" ry="0" transform="matrix(1.014262 0.620536 -0.723394 1.182383 705.735523 -233.454803)" fill="rgb(227,129,107)" stroke="none" stroke-width="0" stroke-miterlimit="1"/><ellipse id="edu_7-ellipse1" rx="25.641026" ry="29.689609" transform="matrix(1 0 0 0.76736 63.643725 130.634278)" fill="rgb(205,96,65)" stroke="none" stroke-width="0" stroke-miterlimit="1"/><ellipse id="edu_7-ellipse2" rx="13.566499" ry="14.844805" transform="matrix(1 0 0 1 261.953068 212.955466)" fill="rgb(236,163,133)" stroke="none" stroke-width="0" stroke-miterlimit="1"/><ellipse id="edu_7-ellipse3" rx="22.94197" ry="22.94197" transform="matrix(1 0 0 1 344.345479 107.692308)" fill="rgb(243,130,82)" stroke="none" stroke-width="0" stroke-miterlimit="1"/><ellipse id="edu_7-ellipse4" rx="128" ry="48" transform="matrix(-0.14996 0 0 0.34745 166.002699 345.09254)" fill="rgb(228,153,108)" stroke="none" stroke-width="0" stroke-miterlimit="1"/><ellipse id="edu_7-ellipse5" rx="128" ry="48" transform="matrix(0.186426 0 0 0.511675 1066.34278 198.110661)" fill="rgb(248,135,84)" stroke="none" stroke-width="0" stroke-miterlimit="1"/><ellipse id="edu_7-ellipse6" rx="128" ry="48" transform="matrix(0.154183 0 0 0.522871 1119.473306 362.753036)" fill="rgb(243,186,154)" stroke="none" stroke-width="0" stroke-miterlimit="1"/><ellipse id="edu_7-ellipse7" rx="128" ry="48" transform="matrix(0.193572 0 0 0.597863 1173.44233 66.967389)" fill="rgb(243,200,175)" stroke="none" stroke-width="0" stroke-miterlimit="1"/><ellipse id="edu_7-ellipse8" rx="128" ry="48" transform="matrix(0.226304 0 0 0.632073 901.700405 362.753036)" fill="rgb(250,163,132)" stroke="none" stroke-width="0" stroke-miterlimit="1"/></svg>