<svg id="untitled" xmlns="http://www.w3.org/2000/svg" xmlns:xlink="http://www.w3.org/1999/xlink" viewBox="0 0 1200 720" shape-rendering="geometricPrecision" text-rendering="geometricPrecision" width="1200" height="720" style="background-color:transparent"><rect id="untitled-rect1" width="836.877828" height="236.199095" rx="0" ry="0" transform="matrix(1.378142 0.000071 0.17506 0.303249 2.657256 0)" fill="rgb(241,115,86)" stroke="none" stroke-width="0" stroke-miterlimit="1"/><polygon id="untitled-polygon1" points="0,-41.97732 12.336825,-16.980183 39.922804,-12.971705 19.961402,6.485853 24.67365,33.960365 0,20.98866 -24.67365,33.960365 -19.961402,6.485853 -39.922804,-12.971705 -12.336825,-16.980183 0,-41.97732" transform="matrix(-0.970142 0.242536 -0.242536 -0.970142 60.407238 240.678733)" fill="rgb(228,176,154)" stroke="none" stroke-width="0"/><polygon id="untitled-polygon2" points="0,-120 35.267115,-48.54102 114.126782,-37.082039 57.063391,18.54102 70.53423,97.082039 0,60 -70.53423,97.082039 -57.063391,18.54102 -114.126782,-37.082039 -35.267115,-48.54102 0,-120" transform="matrix(0.401409 0 0 0.480228 179.120673 160.20835)" fill="rgb(232,196,191)" stroke="none" stroke-width="0"/><polygon id="untitled-polygon3" points="0,-120 35.267115,-48.54102 114.126782,-37.082039 57.063391,18.54102 70.53423,97.082039 0,60 -70.53423,97.082039 -57.063391,18.54102 -114.126782,-37.082039 -35.267115,-48.54102 0,-120" transform="matrix(0.482762 0 0 0.431522 1121.572167 141.219667)" fill="rgb(232,150,126)" stroke="none" stroke-width="0"/><polygon id="untitled-polygon4" points="0,-37.875492 11.131328,-15.320958 36.021734,-11.704171 18.010867,5.852085 22.262656,30.641917 0,18.937746 -22.262656,30.641917 -18.010867,5.852085 -36.021734,-11.704171 -11.131328,-15.320958 0,-37.875492" transform="matrix(1 0 0 1 1131.447962 348.597285)" fill="rgb(246,218,201)" stroke="none" stroke-width="0"/></svg>