<?xml version="1.0" standalone="no"?>
<!DOCTYPE svg PUBLIC "-//W3C//DTD SVG 20010904//EN"
 "http://www.w3.org/TR/2001/REC-SVG-20010904/DTD/svg10.dtd">
<svg version="1.0" xmlns="http://www.w3.org/2000/svg"
 width="300.000000pt" height="300.000000pt" viewBox="0 0 300.000000 300.000000"
 preserveAspectRatio="xMidYMid meet">
<metadata>
Created by potrace 1.14, written by Peter Selinger 2001-2017
</metadata>
<g transform="translate(0.000000,300.000000) scale(0.100000,-0.100000)"
fill="#000000" stroke="none">
<path d="M1345 2992 c-6 -5 -30 -14 -55 -21 -179 -51 -270 -89 -364 -149 -54
-35 -146 -123 -146 -140 0 -7 14 -18 30 -23 28 -10 42 -29 21 -29 -16 0 -113
-154 -166 -265 -67 -138 -127 -315 -149 -440 -3 -16 -8 -41 -11 -54 -5 -26
-18 -130 -18 -148 0 -7 -4 -13 -7 -13 -4 0 -8 -86 -9 -191 -2 -144 1 -195 11
-207 7 -9 8 -13 2 -9 -6 3 -11 0 -11 -8 0 -8 4 -12 9 -9 4 3 8 -12 9 -33 1
-48 5 -75 30 -198 44 -212 134 -432 248 -605 49 -75 199 -239 257 -280 50 -37
81 -56 109 -70 17 -8 37 -19 45 -26 8 -6 56 -24 105 -40 80 -25 104 -29 215
-28 101 0 139 4 200 23 259 79 483 291 636 603 58 120 121 304 139 407 3 19 7
37 9 40 2 3 7 26 10 51 3 25 8 56 11 70 24 125 25 450 0 600 -2 14 -7 45 -10
70 -20 141 -86 343 -162 500 -46 96 -137 243 -178 286 -68 74 -118 123 -145
144 -18 14 -42 33 -54 43 -57 50 -293 156 -310 140 -3 -4 -6 -1 -6 5 0 14
-280 17 -295 4z m-286 -140 c-70 -49 -179 -132 -203 -154 -21 -19 -46 -24 -46
-10 0 23 117 112 212 162 93 50 106 50 37 2z"/>
</g>
</svg>
